<?xml version="1.0" encoding="utf-8"?>
<!-- Generator: Adobe Illustrator 21.1.0, SVG Export Plug-In . SVG Version: 6.00 Build 0)  -->
<svg version="1.1" xmlns="http://www.w3.org/2000/svg" xmlns:xlink="http://www.w3.org/1999/xlink" x="0px" y="0px"
	 viewBox="0 0 500 500" style="enable-background:new 0 0 500 500;" xml:space="preserve">
<style type="text/css">
	.st0{display:none;}
	.st1{display:inline;stroke:#000000;stroke-miterlimit:10;}
	.st2{display:inline;fill:none;stroke:#000000;stroke-width:15;stroke-miterlimit:10;}
	.st3{display:inline;fill:none;stroke:#000000;stroke-width:18;stroke-linecap:round;stroke-miterlimit:10;}
	.st4{display:inline;fill:none;stroke:#000000;stroke-width:18;stroke-miterlimit:10;}
	.st5{fill:none;stroke:#000000;stroke-width:30;stroke-linecap:round;stroke-miterlimit:10;}
	.st6{fill:none;stroke:#000000;stroke-width:62;stroke-linecap:round;stroke-miterlimit:10;}
</style>
<g id="Layer_1" class="st0">
	<path class="st1" d="M247,288.5L247,288.5c-39.3,0-71.5-32.2-71.5-71.5V114c0-39.3,32.2-71.5,71.5-71.5h0
		c39.3,0,71.5,32.2,71.5,71.5v103C318.5,256.3,286.3,288.5,247,288.5z"/>
	<path class="st2" d="M363.5,165.5"/>
	<path class="st3" d="M357.5,166v47.9c0,61-49.5,110.5-110.5,110.5s-110.5-49.5-110.5-110.5V166"/>
	<line class="st4" x1="247.5" y1="324.5" x2="247.5" y2="439.5"/>
	<line class="st3" x1="136.5" y1="439.5" x2="357.5" y2="439.5"/>
</g>
<g id="Layer_2">
	<circle class="st5" cx="174" cy="181.5" r="121.5"/>
	<line class="st6" x1="276.5" y1="278" x2="447.5" y2="440"/>
</g>
</svg>
