<?xml version="1.0" encoding="utf-8"?>
<!-- Generator: Adobe Illustrator 21.1.0, SVG Export Plug-In . SVG Version: 6.00 Build 0)  -->
<svg version="1.1" id="Layer_1" xmlns="http://www.w3.org/2000/svg" xmlns:xlink="http://www.w3.org/1999/xlink" x="0px" y="0px"
	 viewBox="0 0 500 500" style="enable-background:new 0 0 500 500;" xml:space="preserve">
<style type="text/css">
	.st0{display:none;opacity:0.26;}
	.st1{display:none;stroke:#000000;stroke-width:2;stroke-miterlimit:10;}
</style>
<rect x="85.4" y="85.4" class="st0" width="329.2" height="329.2"/>
<path d="M191.2,464h-90.4c-8.7,0-15.8-7.1-15.8-15.8V51.8c0-8.7,7.1-15.8,15.8-15.8h90.4c8.7,0,15.8,7.1,15.8,15.8v396.4
	C207,456.9,199.9,464,191.2,464z"/>
<path d="M399.2,465h-90.4c-8.7,0-15.8-7.1-15.8-15.8V52.8c0-8.7,7.1-15.8,15.8-15.8h90.4c8.7,0,15.8,7.1,15.8,15.8v396.4
	C415,457.9,407.9,465,399.2,465z"/>
<path class="st1" d="M407.2,236.2L111.1,39.1c-11-7.3-25.7,0.6-25.7,13.8v394.3c0,13.2,14.7,21.1,25.7,13.8l296.1-197.1
	C417,257.2,417,242.8,407.2,236.2z"/>
</svg>
