<?xml version="1.0" encoding="utf-8"?>
<!-- Generator: Adobe Illustrator 21.1.0, SVG Export Plug-In . SVG Version: 6.00 Build 0)  -->
<svg version="1.1" xmlns="http://www.w3.org/2000/svg" xmlns:xlink="http://www.w3.org/1999/xlink" x="0px" y="0px"
	 viewBox="0 0 500 500" style="enable-background:new 0 0 500 500;" xml:space="preserve">
<style type="text/css">
	.st0{display:none;}
	.st1{display:inline;stroke:#000000;stroke-miterlimit:10;}
	.st2{display:inline;fill:none;stroke:#000000;stroke-width:15;stroke-miterlimit:10;}
	.st3{display:inline;fill:none;stroke:#000000;stroke-width:18;stroke-linecap:round;stroke-miterlimit:10;}
	.st4{display:inline;fill:none;stroke:#000000;stroke-width:18;stroke-miterlimit:10;}
	.st5{display:inline;fill:none;stroke:#000000;stroke-width:30;stroke-linecap:round;stroke-miterlimit:10;}
	.st6{display:inline;fill:none;stroke:#000000;stroke-width:62;stroke-linecap:round;stroke-miterlimit:10;}
	.st7{fill:#F0A830;}
</style>
<g id="Layer_1" class="st0">
	<path class="st1" d="M247,288.5L247,288.5c-39.3,0-71.5-32.2-71.5-71.5V114c0-39.3,32.2-71.5,71.5-71.5h0
		c39.3,0,71.5,32.2,71.5,71.5v103C318.5,256.3,286.3,288.5,247,288.5z"/>
	<path class="st2" d="M363.5,165.5"/>
	<path class="st3" d="M357.5,166v47.9c0,61-49.5,110.5-110.5,110.5s-110.5-49.5-110.5-110.5V166"/>
	<line class="st4" x1="247.5" y1="324.5" x2="247.5" y2="439.5"/>
	<line class="st3" x1="136.5" y1="439.5" x2="357.5" y2="439.5"/>
</g>
<g id="Layer_2" class="st0">
	<circle class="st5" cx="174" cy="181.5" r="121.5"/>
	<line class="st6" x1="276.5" y1="278" x2="447.5" y2="440"/>
</g>
<g id="Layer_3">
	<path class="st7" d="M257.6,44.4l62.3,126.1c1.2,2.5,3.6,4.2,6.4,4.6l139.2,20.2c6.9,1,9.7,9.5,4.7,14.4l-100.7,98.2
		c-2,1.9-2.9,4.7-2.4,7.5l23.8,138.6c1.2,6.9-6.1,12.2-12.3,8.9l-124.5-65.5c-2.5-1.3-5.4-1.3-7.9,0L121.6,463
		c-6.2,3.3-13.5-2-12.3-8.9l23.8-138.6c0.5-2.7-0.4-5.5-2.4-7.5L29.9,209.8c-5-4.9-2.2-13.4,4.7-14.4l139.2-20.2
		c2.8-0.4,5.1-2.1,6.4-4.6l62.3-126.1C245.5,38.1,254.5,38.1,257.6,44.4z"/>
</g>
</svg>
